<svg xmlns="http://www.w3.org/2000/svg" viewBox="0 0 240 200" role="img" aria-labelledby="t d"><title id="t">Five people plus one sample</title><desc id="d">Layered three-dimensional group icon with an additional sample box</desc><defs><linearGradient id="p" x1="0" y1="0" x2="1" y2="1"><stop offset="0" stop-color="#dfeaff"/><stop offset="1" stop-color="#7fa2d3"/></linearGradient><linearGradient id="w" x1="0" y1="0" x2="1" y2="1"><stop offset="0" stop-color="#fff"/><stop offset="1" stop-color="#cdd9e8"/></linearGradient><filter id="s" x="-30%" y="-30%" width="170%" height="190%"><feDropShadow dx="0" dy="10" stdDeviation="10" flood-color="#04162d" flood-opacity=".3"/></filter></defs><g filter="url(#s)"><g transform="translate(18 25)"><circle cx="58" cy="42" r="21" fill="url(#p)"/><circle cx="104" cy="32" r="23" fill="url(#w)"/><circle cx="149" cy="43" r="21" fill="url(#p)"/><circle cx="84" cy="68" r="19" fill="url(#p)"/><circle cx="127" cy="68" r="19" fill="url(#w)"/><path d="M28 126c0-28 13-45 30-45s30 17 30 45v13H28z" fill="url(#p)"/><path d="M71 122c0-32 14-52 33-52s34 20 34 52v17H71z" fill="url(#w)"/><path d="M127 126c0-28 13-45 30-45s30 17 30 45v13h-60z" fill="url(#p)"/></g><g transform="translate(151 116)"><rect x="0" y="0" width="67" height="58" rx="13" fill="#fff"/><path d="M33.5 14v30M18.5 29h30" stroke="#0a2240" stroke-width="7" stroke-linecap="round"/></g></g></svg>